<?xml version="1.0" encoding="utf-8"?>
<!-- Generator: Adobe Illustrator 21.0.0, SVG Export Plug-In . SVG Version: 6.00 Build 0)  -->
<svg version="1.1" id="Layer_1" xmlns="http://www.w3.org/2000/svg" xmlns:xlink="http://www.w3.org/1999/xlink" x="0px" y="0px"
	 viewBox="0 0 500 500" style="enable-background:new 0 0 500 500;" xml:space="preserve">
<style type="text/css">
	.st0{fill:none;stroke:#000000;}
</style>
<g>
	<polyline class="st0" points="29.6,33.3 158.9,33.4 155.7,160.6 25.5,161.2 29.6,33.3 	"/>
	<polyline class="st0" points="32,32.7 155.3,31.9 155.8,160.8 29.1,161.8 32,32.7 	"/>
	<polyline class="st0" points="30.8,35.6 157.5,37.6 152.1,152.8 35.8,150 30.8,35.6 	"/>
	<polyline class="st0" points="41.7,34.7 151.5,38.3 152.4,150.7 39.6,150.3 41.7,34.7 	"/>
	<polyline class="st0" points="41.8,43.4 147.9,46.5 148.9,146.7 43.1,145.5 41.8,43.4 	"/>
	<polyline class="st0" points="47.1,49.3 144.6,49.5 145.3,146.7 46.8,140.4 47.1,49.3 	"/>
	<polyline class="st0" points="49.8,46.3 138.9,46.5 143.1,138.2 49.9,137.9 49.8,46.3 	"/>
	<polyline class="st0" points="52.5,52.2 135.9,56.3 135.6,131.9 55.2,136.4 52.5,52.2 	"/>
	<polyline class="st0" points="54.4,56.8 132,54.6 135.4,135 53.7,131.6 54.4,56.8 	"/>
	<polyline class="st0" points="58.4,58.4 130.8,58.5 130.1,131 57.1,131.8 58.4,58.4 	"/>
	<polyline class="st0" points="62.9,60.1 129.6,63.9 126.3,129.3 58.7,127.9 62.9,60.1 	"/>
	<polyline class="st0" points="62.8,63.8 128,64.8 128,124.5 65.4,124.3 62.8,63.8 	"/>
	<polyline class="st0" points="66.2,64.6 126.8,65 125.1,125.8 64.3,122.7 66.2,64.6 	"/>
	<polyline class="st0" points="67.1,67.1 123.7,64.4 126.3,126.9 66.9,126.1 67.1,67.1 	"/>
	<polyline class="st0" points="65.2,64.9 123.5,66.6 123.7,123.8 67,124.5 65.2,64.9 	"/>
	<polyline class="st0" points="68.7,67.7 123.9,69.8 121.3,120.7 67.5,123.9 68.7,67.7 	"/>
	<polyline class="st0" points="68.8,68.6 122.6,66.5 121.5,120.3 67.9,122.9 68.8,68.6 	"/>
	<polyline class="st0" points="74.4,73.7 115.9,71.9 118.2,117.6 73.5,116.7 74.4,73.7 	"/>
	<polyline class="st0" points="77.7,75.5 114.8,77.6 113.6,113 76.9,114.5 77.7,75.5 	"/>
	<polyline class="st0" points="76.7,77.1 110.6,78.5 113.2,113.1 77.8,111.2 76.7,77.1 	"/>
	<polyline class="st0" points="80.3,80.4 110.7,79.2 111.2,110.4 80.8,110.9 80.3,80.4 	"/>
	<polyline class="st0" points="82.5,82.1 108,83.8 107.5,106.2 82.1,107.5 82.5,82.1 	"/>
	<polyline class="st0" points="85.8,86.4 104.7,86 104.6,104.3 86.3,105.1 85.8,86.4 	"/>
	<polyline class="st0" points="85.2,85.9 104.5,85.8 104.9,105 86,104.7 85.2,85.9 	"/>
	<polyline class="st0" points="175.7,26.1 315,29.2 310.8,165.1 182.8,157.2 175.7,26.1 	"/>
	<polyline class="st0" points="178.4,32.1 305.7,32.5 309,158.1 175.8,162.9 178.4,32.1 	"/>
	<polyline class="st0" points="197.5,52.8 292.6,51.1 289.9,141.5 200.6,141.4 197.5,52.8 	"/>
	<polyline class="st0" points="204.3,57.1 285.5,53.5 285.8,135.1 203.6,135.1 204.3,57.1 	"/>
	<polyline class="st0" points="211,57.2 280.9,59.9 284.6,129.2 210.9,131.9 211,57.2 	"/>
	<polyline class="st0" points="210.3,58.7 279.9,60.7 283.6,130.5 211.5,131.6 210.3,58.7 	"/>
	<polyline class="st0" points="209.1,62.9 280,59.8 279.4,129.9 210.2,129.7 209.1,62.9 	"/>
	<polyline class="st0" points="219.8,70.9 270.2,71.7 271,121.2 221.6,118.1 219.8,70.9 	"/>
	<polyline class="st0" points="221.2,68.8 271.4,70.3 269.1,118.6 221.8,119.6 221.2,68.8 	"/>
	<polyline class="st0" points="238.9,88.4 251.4,88.5 251.5,101.9 238.3,101.1 238.9,88.4 	"/>
	<polyline class="st0" points="240.3,90.5 249.6,89.9 249.7,100 240.2,99.6 240.3,90.5 	"/>
	<polyline class="st0" points="240.9,90.9 249.4,91 249.4,99.5 240.6,99.1 240.9,90.9 	"/>
	<polyline class="st0" points="243.8,93.9 246.1,93.8 246.2,96.2 243.9,96.2 243.8,93.9 	"/>
	<polyline class="st0" points="244.9,94.9 245.1,94.9 245.1,95.1 244.9,95.1 244.9,94.9 	"/>
	<polygon class="st0" points="331.4,28.5 463.5,28.6 461.2,162.9 332.4,155.7 	"/>
	<polygon class="st0" points="329.9,34.6 455.8,36.2 460.8,157.9 332.9,159.9 	"/>
	<polyline class="st0" points="338.9,35.1 458.8,36.6 454.4,157.5 337.5,155.2 338.9,35.1 	"/>
	<polyline class="st0" points="344,42.3 446.1,43.9 446.1,148.5 338.4,150.4 344,42.3 	"/>
	<polyline class="st0" points="343.1,39.4 445.8,39.5 451.1,145.1 343.9,149.8 343.1,39.4 	"/>
	<polyline class="st0" points="342.2,46.5 446.8,47.5 444.5,142.4 340.1,147 342.2,46.5 	"/>
	<polyline class="st0" points="347.7,41.2 449,47.3 449.3,146.1 346.9,146.5 347.7,41.2 	"/>
	<polyline class="st0" points="359.7,56.3 431.6,59.8 430.4,134.2 360.3,131.6 359.7,56.3 	"/>
	<polyline class="st0" points="362.8,59.4 430.1,59.9 428.8,127.9 358.2,128.4 362.8,59.4 	"/>
	<polyline class="st0" points="365.1,64 427,64.8 427.7,123.4 366.5,123.2 365.1,64 	"/>
	<polyline class="st0" points="369.5,68.6 422.9,68.1 421.8,120.5 369.8,123.2 369.5,68.6 	"/>
	<polyline class="st0" points="369.7,70.3 419.8,67.6 421.1,121.8 370.3,121.7 369.7,70.3 	"/>
	<polyline class="st0" points="372.4,70.6 417.6,71 420.1,120.2 372.3,119.5 372.4,70.6 	"/>
	<polyline class="st0" points="377.3,75 415,74.8 414.5,114.2 375.1,112.7 377.3,75 	"/>
	<polyline class="st0" points="375.2,77.5 412.8,76.4 412.2,113.1 377.5,112.3 375.2,77.5 	"/>
	<polyline class="st0" points="381,80.1 410.7,79.6 409.4,110 381.2,108.8 381,80.1 	"/>
	<polyline class="st0" points="380.9,81.9 409.4,81.8 407.8,107.5 382.2,108.8 380.9,81.9 	"/>
	<polyline class="st0" points="380.7,80.9 407.8,82.4 409.3,107.9 381.3,108 380.7,80.9 	"/>
	<polyline class="st0" points="33.5,176.6 156.5,174.9 163.4,310.2 29.4,313.6 33.5,176.6 	"/>
	<polyline class="st0" points="40.2,188.3 156.2,190.9 152.6,306.4 34.7,307.4 40.2,188.3 	"/>
	<polyline class="st0" points="42.2,190.1 150.2,186.9 150.5,302.4 39.4,298.6 42.2,190.1 	"/>
	<polyline class="st0" points="38.5,191.8 153.5,192.3 146.6,303.2 38,302.4 38.5,191.8 	"/>
	<polyline class="st0" points="40.9,190.2 146.4,194.1 151.6,303.5 43.7,300.8 40.9,190.2 	"/>
	<polyline class="st0" points="44.9,194.7 151.7,193.4 146.8,299.1 42.3,298.4 44.9,194.7 	"/>
	<polyline class="st0" points="41.1,194 148.7,191 148.4,294.5 43,296.4 41.1,194 	"/>
	<polyline class="st0" points="46.7,193.1 145.1,195.6 143.4,291.6 45.9,296.9 46.7,193.1 	"/>
	<polyline class="st0" points="49.2,197.2 141.3,192.9 144.9,290.7 45.4,289.9 49.2,197.2 	"/>
	<polyline class="st0" points="46.9,199.9 140.5,198.5 142.9,289.9 49.7,289.2 46.9,199.9 	"/>
	<polyline class="st0" points="51.5,202.7 139.1,199.8 136.3,288.1 51.7,286.4 51.5,202.7 	"/>
	<polyline class="st0" points="56.7,203.8 134.5,200.9 134,285.5 54.7,286.6 56.7,203.8 	"/>
	<polyline class="st0" points="54.2,205.6 135.1,205.8 133.2,284.9 56.9,280.6 54.2,205.6 	"/>
	<polyline class="st0" points="56.9,208.9 128.5,211.1 131.8,283.1 59.2,280.6 56.9,208.9 	"/>
	<polyline class="st0" points="72.5,219.6 118.4,222.6 116.8,268.5 73,268.8 72.5,219.6 	"/>
	<polyline class="st0" points="75.7,223.1 114.7,223.5 117,266.6 74.7,264.8 75.7,223.1 	"/>
	<polyline class="st0" points="76.4,228.1 113.8,227.9 113.6,263.6 77.1,263.9 76.4,228.1 	"/>
	<polyline class="st0" points="91.5,241.8 98.3,241.8 98.3,248.5 91.8,248.6 91.5,241.8 	"/>
	<polyline class="st0" points="94.5,244.5 95.5,244.5 95.5,245.6 94.4,245.5 94.5,244.5 	"/>
	<polyline class="st0" points="177.7,180.6 310.7,175.6 315,312.9 183,312.1 177.7,180.6 	"/>
	<polyline class="st0" points="183,179.4 304.3,177.1 313,304.8 175.8,311 183,179.4 	"/>
	<polyline class="st0" points="190.3,188.7 299.6,190.7 302.1,302.9 192.4,302.3 190.3,188.7 	"/>
	<polyline class="st0" points="189.5,189.3 301.3,189.6 303.1,299.8 192.7,296.2 189.5,189.3 	"/>
	<polyline class="st0" points="195,189.9 301,188.2 294.8,298.8 192.1,294.7 195,189.9 	"/>
	<polyline class="st0" points="189.3,189.9 296,194.7 298.6,299.9 196.6,298.3 189.3,189.9 	"/>
	<polyline class="st0" points="198,196 294.6,196.2 293.3,293.8 196.5,298.2 198,196 	"/>
	<polyline class="st0" points="196.3,196 293.7,201.4 293.3,294.4 194.2,289.9 196.3,196 	"/>
	<polyline class="st0" points="197.6,199.8 288.7,199.9 289.6,294.9 194.1,293.8 197.6,199.8 	"/>
	<polyline class="st0" points="200.5,201 290,198.9 288.2,292.6 196.8,292 200.5,201 	"/>
	<polyline class="st0" points="198.9,197.2 292.1,199 290.4,290.1 198.4,286.4 198.9,197.2 	"/>
	<polyline class="st0" points="205.1,203.9 287.7,205.1 286.6,289.7 204.4,291 205.1,203.9 	"/>
	<polyline class="st0" points="202.8,205 286.1,206.2 285.1,285.2 204.8,285.1 202.8,205 	"/>
	<polyline class="st0" points="207.9,208.9 283.9,207.4 282.7,282.8 206.6,281.9 207.9,208.9 	"/>
	<polyline class="st0" points="206.7,211.4 279.9,207.6 283.1,280.4 210.4,282.8 206.7,211.4 	"/>
	<polyline class="st0" points="209,211.5 278.9,211.7 277.5,278.7 211.8,278.9 209,211.5 	"/>
	<polyline class="st0" points="214.1,211.6 276.1,209.9 280.5,276.6 212.3,278.3 214.1,211.6 	"/>
	<polyline class="st0" points="211.8,212.7 274.9,212.7 277.4,275.7 212.2,275.4 211.8,212.7 	"/>
	<polyline class="st0" points="226.1,228.1 263.8,226.7 263.3,263.7 227.5,262.5 226.1,228.1 	"/>
	<polyline class="st0" points="230.3,228.9 260.1,229.2 259.9,259.7 229.9,260.9 230.3,228.9 	"/>
	<polyline class="st0" points="231.9,233.5 256.7,231.9 256.7,257.7 232.2,256.7 231.9,233.5 	"/>
	<polyline class="st0" points="233.1,232.4 256.1,232.3 257.6,256.4 232.5,256.7 233.1,232.4 	"/>
	<polyline class="st0" points="239.3,239.4 251.1,238.8 250.8,251 239.1,250.9 239.3,239.4 	"/>
	<polyline class="st0" points="242.4,242.5 247.5,242.3 247.4,247.6 242.3,247.7 242.4,242.5 	"/>
	<polyline class="st0" points="331,182.2 457.5,182.3 459.2,312.4 327.2,308.8 331,182.2 	"/>
	<polyline class="st0" points="332.1,182.2 453.2,186.6 460.3,305.3 330.8,307.3 332.1,182.2 	"/>
	<polyline class="st0" points="332.8,181.6 459.5,182.1 461.4,305.6 331.6,308.4 332.8,181.6 	"/>
	<polyline class="st0" points="335.1,183.9 456.5,191.3 457.3,305.8 332.6,304.9 335.1,183.9 	"/>
	<polyline class="st0" points="340.1,183.7 449.9,188.9 452,300.5 332.6,298.8 340.1,183.7 	"/>
	<polyline class="st0" points="356.3,203.9 435.3,201.6 433.7,284 352.7,285.5 356.3,203.9 	"/>
	<polyline class="st0" points="366.9,218.6 423.3,216.6 423,275.7 364.2,275.4 366.9,218.6 	"/>
	<polyline class="st0" points="365.4,218.2 423.8,217.2 424.6,273.8 367.7,271.7 365.4,218.2 	"/>
	<polyline class="st0" points="368.9,219.6 419.2,219.4 422.1,270.4 370.8,271 368.9,219.6 	"/>
	<polyline class="st0" points="372.1,224.3 416.3,223.7 416.8,266.9 373,268.1 372.1,224.3 	"/>
	<polyline class="st0" points="375.2,224.6 412.6,225.7 414.6,264.4 374.5,263.7 375.2,224.6 	"/>
	<polyline class="st0" points="378.3,230 410,228.9 410.6,260.6 379.4,261.7 378.3,230 	"/>
	<polyline class="st0" points="379.2,227.9 412,228 411,260 379.3,262.2 379.2,227.9 	"/>
	<polyline class="st0" points="26,330.4 164.7,326 159.7,456.6 27.3,460.7 26,330.4 	"/>
	<polyline class="st0" points="35.1,326.6 162,329.4 154.8,461 30.6,457.8 35.1,326.6 	"/>
	<polyline class="st0" points="41.5,341.9 149.9,338.7 149.4,447.1 41.4,451.1 41.5,341.9 	"/>
	<polyline class="st0" points="51.3,346.4 143.8,349.6 138.4,441 47.4,441.9 51.3,346.4 	"/>
	<polyline class="st0" points="53.8,348.3 139.8,350.7 138.8,441.3 49.4,441.4 53.8,348.3 	"/>
	<polyline class="st0" points="51.6,356.9 137.3,356.8 135.6,438.3 54.9,432.3 51.6,356.9 	"/>
	<polyline class="st0" points="58.5,358.1 132.9,357 132.1,432.6 57.2,435.4 58.5,358.1 	"/>
	<polyline class="st0" points="61,360.3 129.9,360.2 131.1,427.7 59.4,429.7 61,360.3 	"/>
	<polyline class="st0" points="63.3,364.8 128.6,361.2 129.9,429.4 61.6,426.9 63.3,364.8 	"/>
	<polyline class="st0" points="62.6,363.9 124.8,364.4 127,423.1 63.9,424.6 62.6,363.9 	"/>
	<polyline class="st0" points="67.5,366.1 125,367.3 124.8,424.1 68.3,421.9 67.5,366.1 	"/>
	<polyline class="st0" points="68.2,367.6 120.9,366.1 123.1,421.2 66.2,421.2 68.2,367.6 	"/>
	<polyline class="st0" points="69.8,367.4 122.7,367.6 123.6,420.8 66.1,423.9 69.8,367.4 	"/>
	<polyline class="st0" points="90.9,390.7 99.4,390.9 99.2,399.2 91.2,399.2 90.9,390.7 	"/>
	<polyline class="st0" points="93.7,393.6 96.3,393.6 96.3,396.3 93.7,396.3 93.7,393.6 	"/>
	<polyline class="st0" points="177.1,334.8 313.3,330.2 306.9,460.5 175.4,464 177.1,334.8 	"/>
	<polyline class="st0" points="178.7,328.1 306.5,327 315,460.2 177.4,456.7 178.7,328.1 	"/>
	<polyline class="st0" points="209.4,358.9 281.2,358.4 279.9,431.5 205.6,430.5 209.4,358.9 	"/>
	<polyline class="st0" points="206.5,359 282.5,360.4 281.9,430.2 209.6,432.7 206.5,359 	"/>
	<polyline class="st0" points="212.1,361.7 278.5,361 278.2,428.4 212.6,425.7 212.1,361.7 	"/>
	<polyline class="st0" points="211.3,363.5 278.4,363.8 276.9,425.5 213.8,424.9 211.3,363.5 	"/>
	<polyline class="st0" points="214.3,365.6 278.5,363.2 276.4,426.6 212,426.2 214.3,365.6 	"/>
	<polyline class="st0" points="236.9,387.3 253.1,387.2 253,403.1 236.6,402.8 236.9,387.3 	"/>
	<polyline class="st0" points="238.4,387.9 252,388.6 252.3,402.1 238.4,401.4 238.4,387.9 	"/>
	<polyline class="st0" points="238.6,387.9 252.2,388.5 251.5,401.5 238.7,402.2 238.6,387.9 	"/>
	<polyline class="st0" points="239.2,388.9 250.6,389.1 251.3,400.4 239,400.5 239.2,388.9 	"/>
	<polyline class="st0" points="239.6,390.1 250.4,389.7 249.9,400.3 239.8,400 239.6,390.1 	"/>
	<polyline class="st0" points="241.2,391.2 249,390.8 249.3,398.9 240.7,399.4 241.2,391.2 	"/>
	<polyline class="st0" points="242.2,391.9 247.7,392.2 247.7,398 242.2,397.7 242.2,391.9 	"/>
	<polyline class="st0" points="243.8,393.8 246.2,393.9 246.2,396.2 243.9,396.3 243.8,393.8 	"/>
	<polyline class="st0" points="331.5,334.7 463.8,329.9 461.8,455.8 331.3,456 331.5,334.7 	"/>
	<polyline class="st0" points="332.2,331.5 462,334.9 455.8,455.3 332,458.9 332.2,331.5 	"/>
	<polyline class="st0" points="343.2,349.1 445.5,345.9 443.5,443.8 349.6,443.5 343.2,349.1 	"/>
	<polyline class="st0" points="352,350.2 438.3,350.3 443,443.5 348.5,440.8 352,350.2 	"/>
	<polyline class="st0" points="349.4,348.5 439.6,350.4 442.5,436.9 353.5,437.9 349.4,348.5 	"/>
	<polyline class="st0" points="359.8,356.7 431.2,358.5 433,429.4 360.2,431.4 359.8,356.7 	"/>
	<polyline class="st0" points="360.2,359 427,357.8 427.8,432.1 358.1,427.1 360.2,359 	"/>
	<polyline class="st0" points="359.6,362.4 430.5,359.2 429.3,426.4 359.6,429.6 359.6,362.4 	"/>
	<polyline class="st0" points="364.2,362.6 425.4,366.6 426.3,425.8 366.1,423.4 364.2,362.6 	"/>
	<polyline class="st0" points="367.3,367.2 420.9,368.4 421.4,420.4 367.9,421 367.3,367.2 	"/>
	<polyline class="st0" points="375.4,376.7 415.7,376 415.4,414.6 376.6,415.1 375.4,376.7 	"/>
	<polyline class="st0" points="380.4,380.1 408.8,380.9 409.8,408.6 380.6,410 380.4,380.1 	"/>
	<polyline class="st0" points="392.1,391.9 398.2,392 397.9,397.9 391.9,398.2 392.1,391.9 	"/>
</g>
</svg>
